<svg width="28" height="28" viewBox="0 0 28 28" fill="none" xmlns="http://www.w3.org/2000/svg">
<path d="M5.90459 23.3859L6.34542 22.7792L5.90459 23.3859ZM4.61407 22.0954L5.22083 21.6546L4.61407 22.0954ZM23.3859 22.0954L22.7792 21.6546L23.3859 22.0954ZM22.0954 23.3859L21.6546 22.7792L22.0954 23.3859ZM22.0954 4.61407L22.5363 4.0073L22.0954 4.61407ZM23.3859 5.90459L22.7792 6.34542L23.3859 5.90459ZM5.90459 4.61407L6.34542 5.22083L5.90459 4.61407ZM4.61407 5.90459L5.22083 6.34542L4.61407 5.90459ZM19.4167 3.5C19.4167 3.08579 19.0809 2.75 18.6667 2.75C18.2525 2.75 17.9167 3.08579 17.9167 3.5H19.4167ZM16.3333 14.4167C15.9191 14.4167 15.5833 14.7525 15.5833 15.1667C15.5833 15.5809 15.9191 15.9167 16.3333 15.9167V14.4167ZM21 15.9167C21.4142 15.9167 21.75 15.5809 21.75 15.1667C21.75 14.7525 21.4142 14.4167 21 14.4167V15.9167ZM16.3333 17.9167C15.9191 17.9167 15.5833 18.2525 15.5833 18.6667C15.5833 19.0809 15.9191 19.4167 16.3333 19.4167V17.9167ZM21 19.4167C21.4142 19.4167 21.75 19.0809 21.75 18.6667C21.75 18.2525 21.4142 17.9167 21 17.9167V19.4167ZM3.59743 9.33333L2.84983 9.27333L3.59743 9.33333ZM18.6667 3.59743L18.6067 4.34503L18.6667 3.59743ZM14 23.75C11.7959 23.75 10.2032 23.749 8.96759 23.6151C7.74606 23.4828 6.96296 23.2278 6.34542 22.7792L5.46375 23.9927C6.3796 24.6581 7.45686 24.9602 8.80602 25.1064C10.1411 25.251 11.8294 25.25 14 25.25V23.75ZM2.75 14C2.75 16.1706 2.74897 17.8589 2.89362 19.194C3.03979 20.5431 3.3419 21.6204 4.0073 22.5363L5.22083 21.6546C4.77217 21.037 4.51724 20.2539 4.38489 19.0324C4.25103 17.7968 4.25 16.2041 4.25 14H2.75ZM6.34542 22.7792C5.91388 22.4656 5.53437 22.0861 5.22083 21.6546L4.0073 22.5363C4.41336 23.0951 4.90486 23.5866 5.46375 23.9927L6.34542 22.7792ZM23.75 14C23.75 16.2041 23.749 17.7968 23.6151 19.0324C23.4828 20.2539 23.2278 21.037 22.7792 21.6546L23.9927 22.5363C24.6581 21.6204 24.9602 20.5431 25.1064 19.194C25.251 17.8589 25.25 16.1706 25.25 14H23.75ZM14 25.25C16.1706 25.25 17.8589 25.251 19.194 25.1064C20.5431 24.9602 21.6204 24.6581 22.5363 23.9927L21.6546 22.7792C21.037 23.2278 20.2539 23.4828 19.0324 23.6151C17.7968 23.749 16.2041 23.75 14 23.75V25.25ZM22.7792 21.6546C22.4656 22.0861 22.0861 22.4656 21.6546 22.7792L22.5363 23.9927C23.0951 23.5866 23.5866 23.0951 23.9927 22.5363L22.7792 21.6546ZM21.6546 5.22083C22.0861 5.53437 22.4656 5.91388 22.7792 6.34542L23.9927 5.46375C23.5866 4.90486 23.0951 4.41336 22.5363 4.0073L21.6546 5.22083ZM14 2.75C11.8294 2.75 10.1411 2.74897 8.80602 2.89362C7.45686 3.03979 6.3796 3.3419 5.46375 4.0073L6.34542 5.22083C6.96296 4.77217 7.74606 4.51724 8.96759 4.38489C10.2032 4.25103 11.7959 4.25 14 4.25V2.75ZM5.46375 4.0073C4.90486 4.41336 4.41336 4.90486 4.0073 5.46375L5.22083 6.34542C5.53437 5.91388 5.91388 5.53437 6.34542 5.22083L5.46375 4.0073ZM16.3333 15.9167H21V14.4167H16.3333V15.9167ZM16.3333 19.4167H21V17.9167H16.3333V19.4167ZM12.0833 16.9167C12.0833 18.1133 11.1133 19.0833 9.91667 19.0833V20.5833C11.9417 20.5833 13.5833 18.9417 13.5833 16.9167H12.0833ZM9.91667 19.0833C8.72005 19.0833 7.75 18.1133 7.75 16.9167H6.25C6.25 18.9417 7.89162 20.5833 9.91667 20.5833V19.0833ZM7.75 16.9167C7.75 15.72 8.72005 14.75 9.91667 14.75V13.25C7.89162 13.25 6.25 14.8916 6.25 16.9167H7.75ZM9.91667 14.75C11.1133 14.75 12.0833 15.72 12.0833 16.9167H13.5833C13.5833 14.8916 11.9417 13.25 9.91667 13.25V14.75ZM4.25 14C4.25 12.0466 4.25055 10.5705 4.34503 9.39333L2.84983 9.27333C2.74945 10.5242 2.75 12.0698 2.75 14H4.25ZM4.34503 9.39333C4.46299 7.92355 4.72141 7.03281 5.22083 6.34542L4.0073 5.46375C3.2676 6.48186 2.97601 7.70113 2.84983 9.27333L4.34503 9.39333ZM14 4.25C15.9534 4.25 17.4295 4.25055 18.6067 4.34503L18.7267 2.84983C17.4758 2.74945 15.9302 2.75 14 2.75V4.25ZM18.6067 4.34503C20.0764 4.46299 20.9672 4.72141 21.6546 5.22083L22.5363 4.0073C21.5181 3.2676 20.2989 2.97601 18.7267 2.84983L18.6067 4.34503ZM17.9167 3.5V3.59743H19.4167V3.5H17.9167ZM24.4026 8.58333H3.59743V10.0833H24.4026V8.58333ZM25.25 14C25.25 12.0698 25.2506 10.5242 25.1502 9.27333L23.655 9.39333C23.7494 10.5705 23.75 12.0466 23.75 14H25.25ZM25.1502 9.27333C25.024 7.70113 24.7324 6.48186 23.9927 5.46375L22.7792 6.34542C23.2786 7.03281 23.537 7.92355 23.655 9.39333L25.1502 9.27333Z" fill="#286FF3"/>
</svg>
