<svg width="24" height="26" viewBox="0 0 24 26" fill="none" xmlns="http://www.w3.org/2000/svg">
<path d="M7.33333 19.2497C6.91912 19.2497 6.58333 19.5855 6.58333 19.9997C6.58333 20.4139 6.91912 20.7497 7.33333 20.7497V19.2497ZM16.6667 20.7497C17.0809 20.7497 17.4167 20.4139 17.4167 19.9997C17.4167 19.5855 17.0809 19.2497 16.6667 19.2497V20.7497ZM7.33333 14.583C6.91912 14.583 6.58333 14.9188 6.58333 15.333C6.58333 15.7472 6.91912 16.083 7.33333 16.083V14.583ZM10.8333 16.083C11.2475 16.083 11.5833 15.7472 11.5833 15.333C11.5833 14.9188 11.2475 14.583 10.8333 14.583V16.083ZM7.33333 9.91634C6.91912 9.91634 6.58333 10.2521 6.58333 10.6663C6.58333 11.0806 6.91912 11.4163 7.33333 11.4163V9.91634ZM16.6667 11.4163C17.0809 11.4163 17.4167 11.0806 17.4167 10.6663C17.4167 10.2521 17.0809 9.91634 16.6667 9.91634V11.4163ZM3.90459 23.5523L4.34542 22.9455L3.90459 23.5523ZM2.61407 22.2618L3.22083 21.8209L2.61407 22.2618ZM21.3859 22.2618L20.7792 21.8209L21.3859 22.2618ZM20.0954 23.5523L19.6546 22.9455L20.0954 23.5523ZM20.0954 2.44708L20.5363 1.84031L20.0954 2.44708ZM21.3859 3.73759L20.7792 4.17843L21.3859 3.73759ZM3.90459 2.44708L4.34542 3.05384L3.90459 2.44708ZM2.61407 3.73759L3.22083 4.17843L2.61407 3.73759ZM13.3372 6.6942L13.4545 7.43497L13.3372 6.6942ZM11.5121 6.6942L11.3948 7.43497L11.5121 6.6942ZM7.33333 20.7497H16.6667V19.2497H7.33333V20.7497ZM7.33333 16.083H10.8333V14.583H7.33333V16.083ZM7.33333 11.4163H16.6667V9.91634H7.33333V11.4163ZM21.75 11.833V14.1663H23.25V11.833H21.75ZM2.25 14.1663V11.833H0.75V14.1663H2.25ZM12 23.9163C9.79595 23.9163 8.20316 23.9153 6.96759 23.7814C5.74606 23.6491 4.96296 23.3942 4.34542 22.9455L3.46375 24.159C4.3796 24.8244 5.45686 25.1265 6.80602 25.2727C8.14114 25.4174 9.82936 25.4163 12 25.4163V23.9163ZM0.75 14.1663C0.75 16.337 0.748971 18.0252 0.893622 19.3603C1.03979 20.7095 1.3419 21.7867 2.0073 22.7026L3.22083 21.8209C2.77217 21.2034 2.51724 20.4203 2.38489 19.1988C2.25103 17.9632 2.25 16.3704 2.25 14.1663H0.75ZM4.34542 22.9455C3.91388 22.632 3.53437 22.2525 3.22083 21.8209L2.0073 22.7026C2.41336 23.2615 2.90486 23.753 3.46375 24.159L4.34542 22.9455ZM21.75 14.1663C21.75 16.3704 21.749 17.9632 21.6151 19.1988C21.4828 20.4203 21.2278 21.2034 20.7792 21.8209L21.9927 22.7026C22.6581 21.7867 22.9602 20.7095 23.1064 19.3603C23.251 18.0252 23.25 16.337 23.25 14.1663H21.75ZM12 25.4163C14.1706 25.4163 15.8589 25.4174 17.194 25.2727C18.5431 25.1265 19.6204 24.8244 20.5363 24.159L19.6546 22.9455C19.037 23.3942 18.2539 23.6491 17.0324 23.7814C15.7968 23.9153 14.2041 23.9163 12 23.9163V25.4163ZM20.7792 21.8209C20.4656 22.2525 20.0861 22.632 19.6546 22.9455L20.5363 24.159C21.0951 23.753 21.5866 23.2615 21.9927 22.7026L20.7792 21.8209ZM23.25 11.833C23.25 9.66237 23.251 7.97415 23.1064 6.63903C22.9602 5.28987 22.6581 4.21261 21.9927 3.29675L20.7792 4.17843C21.2278 4.79596 21.4828 5.57906 21.6151 6.8006C21.749 8.03616 21.75 9.62896 21.75 11.833H23.25ZM19.6546 3.05384C20.0861 3.36738 20.4656 3.74689 20.7792 4.17843L21.9927 3.29675C21.5866 2.73786 21.0951 2.24637 20.5363 1.84031L19.6546 3.05384ZM2.25 11.833C2.25 9.62896 2.25103 8.03616 2.38489 6.8006C2.51724 5.57906 2.77217 4.79596 3.22083 4.17843L2.0073 3.29675C1.3419 4.21261 1.03979 5.28987 0.893622 6.63903C0.748971 7.97415 0.75 9.66237 0.75 11.833H2.25ZM3.46375 1.84031C2.90486 2.24637 2.41336 2.73786 2.0073 3.29675L3.22083 4.17843C3.53437 3.74688 3.91388 3.36738 4.34542 3.05384L3.46375 1.84031ZM13.2198 5.95344C12.693 6.03688 12.1563 6.03688 11.6294 5.95344L11.3948 7.43497C12.0771 7.54304 12.7722 7.54304 13.4545 7.43497L13.2198 5.95344ZM18.9838 1.5624C17.5384 3.00673 16.4784 4.05078 15.5606 4.77359C14.6539 5.48762 13.946 5.83842 13.2198 5.95344L13.4545 7.43497C14.5314 7.2644 15.4758 6.74968 16.4886 5.95203C17.4903 5.16316 18.6171 4.04936 20.044 2.62344L18.9838 1.5624ZM12 2.08301C13.9368 2.08301 15.4045 2.08354 16.5772 2.17569C17.7474 2.26765 18.5502 2.44692 19.1762 2.7626L19.8516 1.42324C18.9706 0.979013 17.942 0.77832 16.6947 0.680302C15.4499 0.582479 13.9141 0.583008 12 0.583008V2.08301ZM19.1762 2.7626C19.3458 2.84813 19.5042 2.94461 19.6546 3.05384L20.5363 1.84031C20.3194 1.68277 20.0919 1.54442 19.8516 1.42324L19.1762 2.7626ZM4.55394 2.37223C6.06145 3.87968 7.23776 5.05387 8.27293 5.88238C9.31915 6.71974 10.2868 7.25949 11.3948 7.43497L11.6294 5.95344C10.8824 5.83512 10.1548 5.46733 9.21023 4.71129C8.25456 3.9464 7.14442 2.84134 5.61458 1.31155L4.55394 2.37223ZM12 0.583008C10.3231 0.583008 8.93872 0.58274 7.78938 0.647818C6.64076 0.712854 5.67371 0.845117 4.83963 1.13291L5.32889 2.55088C5.96965 2.32978 6.77591 2.2076 7.87417 2.14542C8.97171 2.08328 10.3078 2.08301 12 2.08301V0.583008ZM4.83963 1.13291C4.33614 1.30663 3.88176 1.53661 3.46375 1.84031L4.34542 3.05384C4.63234 2.84538 4.95199 2.68092 5.32889 2.55088L4.83963 1.13291Z" fill="#286FF3"/>
</svg>
