<svg width="28" height="28" viewBox="0 0 28 28" fill="none" xmlns="http://www.w3.org/2000/svg">
<path d="M3.22811 18.4562L3.94141 18.2244L3.22811 18.4562ZM1.93253 11.2601L2.65384 11.4655L1.93253 11.2601ZM7.34261 5.79307L6.90177 5.18631L7.34261 5.79307ZM2.06469 10.8533L2.76901 11.1111L2.06469 10.8533ZM6.75574 25.2909L6.33745 25.9134L6.75574 25.2909ZM6.40973 25.0395L5.94694 25.6297L6.40973 25.0395ZM24.7719 18.4562L24.0586 18.2244L24.7719 18.4562ZM21.5903 25.0395L22.0531 25.6297L21.5903 25.0395ZM21.2443 25.2909L21.6626 25.9134L21.2443 25.2909ZM20.6574 5.79307L21.0982 5.18631L20.6574 5.79307ZM25.9353 10.8533L25.231 11.1111L25.9353 10.8533ZM26.0675 11.2601L25.3462 11.4655L26.0675 11.2601ZM14.2139 2.33717L14.1864 3.08667L14.2139 2.33717ZM13.7862 2.33717L13.8137 3.08667L13.7862 2.33717ZM11.6667 20.0395C11.2525 20.0395 10.9167 20.3753 10.9167 20.7895C10.9167 21.2037 11.2525 21.5395 11.6667 21.5395V20.0395ZM16.3333 21.5395C16.7476 21.5395 17.0833 21.2037 17.0833 20.7895C17.0833 20.3753 16.7476 20.0395 16.3333 20.0395V21.5395ZM3.22811 18.4562L3.94141 18.2244C3.34217 16.3802 2.91211 15.0533 2.68611 13.974C2.46372 12.912 2.45582 12.1607 2.65384 11.4655L1.93253 11.2601L1.21122 11.0546C0.92221 12.0693 0.967901 13.0873 1.21796 14.2814C1.46441 15.4584 1.92566 16.8747 2.51482 18.688L3.22811 18.4562ZM7.34261 5.79307L6.90177 5.18631C5.35932 6.30697 4.15368 7.18165 3.26251 7.98896C2.3583 8.80809 1.72295 9.60483 1.36038 10.5956L2.06469 10.8533L2.76901 11.1111C3.01743 10.4323 3.4654 9.82914 4.26957 9.10064C5.08679 8.36033 6.21462 7.53965 7.78345 6.39983L7.34261 5.79307ZM1.93253 11.2601L2.65384 11.4655C2.68788 11.346 2.7263 11.2278 2.76901 11.1111L2.06469 10.8533L1.36038 10.5956C1.30506 10.7467 1.25531 10.8998 1.21122 11.0546L1.93253 11.2601ZM14 26.2824V25.5324C12.0608 25.5324 10.666 25.5314 9.56973 25.4128C8.49093 25.2961 7.774 25.0715 7.17404 24.6684L6.75574 25.2909L6.33745 25.9134C7.21311 26.5018 8.19543 26.7729 9.40842 26.9041C10.6039 27.0334 12.0934 27.0324 14 27.0324V26.2824ZM3.22811 18.4562L2.51482 18.688C3.10399 20.5012 3.5633 21.9181 4.05571 23.0152C4.55533 24.1282 5.11674 24.9787 5.94694 25.6297L6.40973 25.0395L6.87251 24.4493C6.30371 24.0033 5.86852 23.3909 5.42418 22.4009C4.97263 21.3949 4.54065 20.0687 3.94141 18.2244L3.22811 18.4562ZM6.75574 25.2909L7.17404 24.6684C7.07089 24.5991 6.97031 24.526 6.87251 24.4493L6.40973 25.0395L5.94694 25.6297C6.0736 25.729 6.20385 25.8236 6.33745 25.9134L6.75574 25.2909ZM24.7719 18.4562L24.0586 18.2244C23.4594 20.0687 23.0274 21.3949 22.5758 22.4009C22.1315 23.3909 21.6963 24.0033 21.1275 24.4493L21.5903 25.0395L22.0531 25.6297C22.8833 24.9787 23.4447 24.1282 23.9443 23.0152C24.4367 21.9181 24.896 20.5012 25.4852 18.688L24.7719 18.4562ZM14 26.2824V27.0324C15.9066 27.0324 17.3961 27.0334 18.5916 26.9041C19.8046 26.7729 20.7869 26.5018 21.6626 25.9134L21.2443 25.2909L20.826 24.6684C20.226 25.0715 19.5091 25.2961 18.4303 25.4128C17.334 25.5314 15.9392 25.5324 14 25.5324V26.2824ZM21.5903 25.0395L21.1275 24.4493C21.0297 24.526 20.9291 24.5991 20.826 24.6684L21.2443 25.2909L21.6626 25.9134C21.7962 25.8236 21.9264 25.729 22.0531 25.6297L21.5903 25.0395ZM20.6574 5.79307L20.2166 6.39983C21.7854 7.53965 22.9132 8.36033 23.7304 9.10064C24.5346 9.82914 24.9826 10.4323 25.231 11.1111L25.9353 10.8533L26.6396 10.5956C26.2771 9.60483 25.6417 8.80809 24.7375 7.98896C23.8463 7.18165 22.6407 6.30697 21.0982 5.18631L20.6574 5.79307ZM24.7719 18.4562L25.4852 18.688C26.0744 16.8747 26.5356 15.4584 26.7821 14.2815C27.0321 13.0873 27.0778 12.0693 26.7888 11.0546L26.0675 11.2601L25.3462 11.4655C25.5442 12.1607 25.5363 12.912 25.3139 13.974C25.0879 15.0533 24.6578 16.3802 24.0586 18.2244L24.7719 18.4562ZM25.9353 10.8533L25.231 11.1111C25.2737 11.2278 25.3121 11.346 25.3462 11.4655L26.0675 11.2601L26.7888 11.0546C26.7447 10.8998 26.695 10.7467 26.6396 10.5956L25.9353 10.8533ZM20.6574 5.79307L21.0982 5.18631C19.5558 4.06565 18.3513 3.18932 17.3082 2.59123C16.2497 1.9844 15.2956 1.62635 14.2414 1.58768L14.2139 2.33717L14.1864 3.08667C14.9087 3.11317 15.6207 3.35283 16.5621 3.89253C17.5187 4.44098 18.6477 5.26001 20.2166 6.39983L20.6574 5.79307ZM7.34261 5.79307L7.78345 6.39983C9.35228 5.26001 10.4813 4.44098 11.4379 3.89253C12.3793 3.35283 13.0913 3.11317 13.8137 3.08667L13.7862 2.33717L13.7587 1.58768C12.7044 1.62635 11.7503 1.9844 10.6918 2.59123C9.64867 3.18932 8.44423 4.06565 6.90177 5.18631L7.34261 5.79307ZM14.2139 2.33717L14.2414 1.58768C14.0805 1.58178 13.9195 1.58178 13.7587 1.58768L13.7862 2.33717L13.8137 3.08667C13.9378 3.08211 14.0622 3.08211 14.1864 3.08667L14.2139 2.33717ZM11.6667 20.7895V21.5395H16.3333V20.7895V20.0395H11.6667V20.7895Z" fill="#B8B8B8"/>
</svg>
