<svg width="29" height="28" viewBox="0 0 29 28" fill="none" xmlns="http://www.w3.org/2000/svg">
<path d="M6.15459 24.5526L6.59542 23.9459L6.15459 24.5526ZM4.86407 23.2621L5.47083 22.8213L4.86407 23.2621ZM23.6359 23.2621L23.0292 22.8213L23.6359 23.2621ZM22.3454 24.5526L22.7863 25.1594L22.3454 24.5526ZM22.3454 5.78077L22.7863 5.17401L22.3454 5.78077ZM23.6359 7.07129L23.0292 7.51213L23.6359 7.07129ZM6.15459 5.78077L6.59542 6.38754L6.15459 5.78077ZM4.86407 7.07129L5.47083 7.51213L4.86407 7.07129ZM22.6708 18.7385L22.5535 17.9978H22.5535L22.6708 18.7385ZM17.8218 23.5875L17.0811 23.4702L17.8218 23.5875ZM10.75 15.5834C10.3358 15.5834 10 15.9192 10 16.3334C10 16.7476 10.3358 17.0834 10.75 17.0834V15.5834ZM17.75 17.0834C18.1642 17.0834 18.5 16.7476 18.5 16.3334C18.5 15.9192 18.1642 15.5834 17.75 15.5834V17.0834ZM17 5.83337C17 6.24759 17.3358 6.58337 17.75 6.58337C18.1642 6.58337 18.5 6.24759 18.5 5.83337H17ZM18.5 2.33337C18.5 1.91916 18.1642 1.58337 17.75 1.58337C17.3358 1.58337 17 1.91916 17 2.33337H18.5ZM10 5.83337C10 6.24759 10.3358 6.58337 10.75 6.58337C11.1642 6.58337 11.5 6.24759 11.5 5.83337H10ZM11.5 2.33337C11.5 1.91916 11.1642 1.58337 10.75 1.58337C10.3358 1.58337 10 1.91916 10 2.33337H11.5ZM24.7162 18.6667L25.4658 18.6924L24.7162 18.6667ZM3.78375 11.6667L3.03419 11.641L3.78375 11.6667ZM24.7162 11.6667L25.4658 11.641L24.7162 11.6667ZM14.25 25.6667V24.9167C12.0459 24.9167 10.4532 24.9157 9.21759 24.7818C7.99606 24.6495 7.21296 24.3945 6.59542 23.9459L6.15459 24.5526L5.71375 25.1594C6.6296 25.8248 7.70686 26.1269 9.05602 26.2731C10.3911 26.4177 12.0794 26.4167 14.25 26.4167V25.6667ZM3.75 15.1667H3C3 17.3373 2.99897 19.0256 3.14362 20.3607C3.28979 21.7098 3.5919 22.7871 4.2573 23.703L4.86407 23.2621L5.47083 22.8213C5.02217 22.2038 4.76724 21.4207 4.63489 20.1991C4.50103 18.9636 4.5 17.3708 4.5 15.1667H3.75ZM6.15459 24.5526L6.59542 23.9459C6.16388 23.6323 5.78437 23.2528 5.47083 22.8213L4.86407 23.2621L4.2573 23.703C4.66336 24.2619 5.15486 24.7533 5.71375 25.1594L6.15459 24.5526ZM23.6359 23.2621L23.0292 22.8213C22.7156 23.2528 22.3361 23.6323 21.9046 23.9459L22.3454 24.5526L22.7863 25.1594C23.3451 24.7533 23.8366 24.2619 24.2427 23.703L23.6359 23.2621ZM22.3454 5.78077L21.9046 6.38754C22.3361 6.70108 22.7156 7.08059 23.0292 7.51213L23.6359 7.07129L24.2427 6.63045C23.8366 6.07156 23.3451 5.58007 22.7863 5.17401L22.3454 5.78077ZM6.15459 5.78077L5.71375 5.17401C5.15486 5.58007 4.66336 6.07156 4.2573 6.63045L4.86407 7.07129L5.47083 7.51213C5.78437 7.08058 6.16388 6.70108 6.59542 6.38754L6.15459 5.78077ZM22.6708 18.7385L22.5535 17.9978C19.7365 18.4439 17.5272 20.6532 17.0811 23.4702L17.8218 23.5875L18.5626 23.7048C18.9071 21.5297 20.613 19.8238 22.7881 19.4793L22.6708 18.7385ZM10.75 16.3334V17.0834H17.75V16.3334V15.5834H10.75V16.3334ZM24.7162 18.6667L24.7162 17.9167C23.6823 17.9167 23.0749 17.9152 22.5535 17.9978L22.6708 18.7385L22.7881 19.4793C23.1641 19.4197 23.6274 19.4167 24.7163 19.4167L24.7162 18.6667ZM24.75 15.1667H24C24 16.5346 23.9999 17.6715 23.9667 18.641L24.7162 18.6667L25.4658 18.6924C25.5001 17.6917 25.5 16.5263 25.5 15.1667H24.75ZM24.7162 18.6667L23.9667 18.641C23.8925 20.8067 23.6513 21.965 23.0292 22.8213L23.6359 23.2621L24.2427 23.703C25.1541 22.4485 25.391 20.8765 25.4658 18.6924L24.7162 18.6667ZM17.75 25.633L18.5 25.633C18.5 24.5441 18.503 24.0808 18.5626 23.7048L17.8218 23.5875L17.0811 23.4702C16.9985 23.9916 17 24.5991 17 25.6329L17.75 25.633ZM14.25 25.6667V26.4167C15.6096 26.4167 16.775 26.4168 17.7757 26.3825L17.75 25.633L17.7243 24.8834C16.7548 24.9166 15.6179 24.9167 14.25 24.9167V25.6667ZM17.75 25.633L17.7757 26.3825C19.9598 26.3077 21.5318 26.0708 22.7863 25.1594L22.3454 24.5526L21.9046 23.9459C21.0483 24.568 19.8899 24.8092 17.7243 24.8834L17.75 25.633ZM3.75 15.1667H4.5C4.5 13.7988 4.50009 12.6619 4.53331 11.6924L3.78375 11.6667L3.03419 11.641C2.99991 12.6417 3 13.8071 3 15.1667H3.75ZM3.78375 11.6667L4.53331 11.6924C4.60751 9.52676 4.84868 8.36845 5.47083 7.51213L4.86407 7.07129L4.2573 6.63045C3.34591 7.88488 3.10902 9.45688 3.03419 11.641L3.78375 11.6667ZM3.78375 11.6667V12.4167H24.7162V11.6667V10.9167H3.78375V11.6667ZM24.75 15.1667H25.5C25.5 13.8071 25.5001 12.6417 25.4658 11.641L24.7162 11.6667L23.9667 11.6924C23.9999 12.6619 24 13.7988 24 15.1667H24.75ZM24.7162 11.6667L25.4658 11.641C25.391 9.45688 25.1541 7.88488 24.2427 6.63045L23.6359 7.07129L23.0292 7.51213C23.6513 8.36845 23.8925 9.52676 23.9667 11.6924L24.7162 11.6667ZM17.75 5.83337H18.5V4.70046H17.75H17V5.83337H17.75ZM17.75 4.70046H18.5V2.33337H17.75H17V4.70046H17.75ZM14.25 4.66671V5.41671C15.6179 5.41671 16.7548 5.4168 17.7243 5.45002L17.75 4.70046L17.7757 3.9509C16.775 3.91661 15.6096 3.91671 14.25 3.91671V4.66671ZM17.75 4.70046L17.7243 5.45002C19.8899 5.52421 21.0483 5.76539 21.9046 6.38754L22.3454 5.78077L22.7863 5.17401C21.5318 4.26262 19.9598 4.02573 17.7757 3.9509L17.75 4.70046ZM10.75 5.83337H11.5V4.70046H10.75H10V5.83337H10.75ZM10.75 4.70046H11.5V2.33337H10.75H10V4.70046H10.75ZM14.25 4.66671V3.91671C12.8904 3.91671 11.725 3.91661 10.7243 3.9509L10.75 4.70046L10.7757 5.45002C11.7452 5.4168 12.8821 5.41671 14.25 5.41671V4.66671ZM10.75 4.70046L10.7243 3.9509C8.54018 4.02573 6.96817 4.26262 5.71375 5.17401L6.15459 5.78077L6.59542 6.38754C7.45174 5.76539 8.61006 5.52421 10.7757 5.45002L10.75 4.70046Z" fill="#B8B8B8"/>
</svg>
