<svg width="26" height="30" viewBox="0 0 26 30" fill="none" xmlns="http://www.w3.org/2000/svg">
<path d="M5.60655 28.0064L5.83832 27.2931L5.60655 28.0064ZM1.32629 23.7261L2.03958 23.4944L1.32629 23.7261ZM24.6737 23.7261L23.9604 23.4944L24.6737 23.7261ZM20.3934 28.0064L20.1617 27.2931L20.3934 28.0064ZM20.3934 9.99231L20.1617 10.7056L20.3934 9.99231ZM24.6737 14.2726L23.9604 14.5043L24.6737 14.2726ZM5.60655 9.99231L5.83832 10.7056L5.60655 9.99231ZM1.32629 14.2726L2.03958 14.5043L1.32629 14.2726ZM12.25 24.3327C12.25 24.7469 12.5858 25.0827 13 25.0827C13.4142 25.0827 13.75 24.7469 13.75 24.3327H12.25ZM10.3333 9.66602V10.416H15.6667V9.66602V8.91602H10.3333V9.66602ZM15.6667 28.3327V27.5827H10.3333V28.3327V29.0827H15.6667V28.3327ZM10.3333 28.3327V27.5827C7.79325 27.5827 6.70108 27.5734 5.83832 27.2931L5.60655 28.0064L5.37479 28.7197C6.52046 29.0919 7.91 29.0827 10.3333 29.0827V28.3327ZM1 18.9993H0.25C0.25 21.4227 0.240747 22.8122 0.612997 23.9579L1.32629 23.7261L2.03958 23.4944C1.75925 22.6316 1.75 21.5394 1.75 18.9993H1ZM5.60655 28.0064L5.83832 27.2931C4.03706 26.7078 2.62485 25.2956 2.03958 23.4944L1.32629 23.7261L0.612997 23.9579C1.34664 26.2158 3.11688 27.986 5.37479 28.7197L5.60655 28.0064ZM25 18.9993H24.25C24.25 21.5394 24.2407 22.6316 23.9604 23.4944L24.6737 23.7261L25.387 23.9579C25.7593 22.8122 25.75 21.4227 25.75 18.9993H25ZM15.6667 28.3327V29.0827C18.09 29.0827 19.4795 29.0919 20.6252 28.7197L20.3934 28.0064L20.1617 27.2931C19.2989 27.5734 18.2068 27.5827 15.6667 27.5827V28.3327ZM24.6737 23.7261L23.9604 23.4944C23.3752 25.2956 21.9629 26.7078 20.1617 27.2931L20.3934 28.0064L20.6252 28.7197C22.8831 27.986 24.6534 26.2158 25.387 23.9579L24.6737 23.7261ZM25 18.9993H25.75C25.75 16.576 25.7593 15.1865 25.387 14.0408L24.6737 14.2726L23.9604 14.5043C24.2407 15.3671 24.25 16.4593 24.25 18.9993H25ZM20.3934 9.99231L20.1617 10.7056C21.9629 11.2909 23.3752 12.7031 23.9604 14.5043L24.6737 14.2726L25.387 14.0408C24.6534 11.7829 22.8831 10.0127 20.6252 9.27901L20.3934 9.99231ZM1 18.9993H1.75C1.75 16.4593 1.75925 15.3671 2.03958 14.5043L1.32629 14.2726L0.612997 14.0408C0.240747 15.1865 0.25 16.576 0.25 18.9993H1ZM5.60655 9.99231L5.37479 9.27901C3.11688 10.0127 1.34664 11.7829 0.612997 14.0408L1.32629 14.2726L2.03958 14.5043C2.62485 12.7031 4.03706 11.2909 5.83832 10.7056L5.60655 9.99231ZM19.6667 8.33268H18.9167V9.66602H19.6667H20.4167V8.33268H19.6667ZM6.33333 9.66602H7.08333V8.33268H6.33333H5.58333V9.66602H6.33333ZM13 1.66602V2.41602C16.2677 2.41602 18.9167 5.065 18.9167 8.33268H19.6667H20.4167C20.4167 4.23657 17.0961 0.916016 13 0.916016V1.66602ZM13 1.66602V0.916016C8.90389 0.916016 5.58333 4.23657 5.58333 8.33268H6.33333H7.08333C7.08333 5.065 9.73232 2.41602 13 2.41602V1.66602ZM13 18.9993H12.25V24.3327H13H13.75V18.9993H13ZM10.3333 16.3327H9.58333C9.58333 18.2197 11.113 19.7493 13 19.7493V18.9993V18.2493C11.9415 18.2493 11.0833 17.3912 11.0833 16.3327H10.3333ZM13 18.9993V19.7493C14.887 19.7493 16.4167 18.2197 16.4167 16.3327H15.6667H14.9167C14.9167 17.3912 14.0585 18.2493 13 18.2493V18.9993ZM15.6667 16.3327H16.4167C16.4167 14.4457 14.887 12.916 13 12.916V13.666V14.416C14.0585 14.416 14.9167 15.2741 14.9167 16.3327H15.6667ZM13 13.666V12.916C11.113 12.916 9.58333 14.4457 9.58333 16.3327H10.3333H11.0833C11.0833 15.2741 11.9415 14.416 13 14.416V13.666ZM10.3333 9.66602V8.91602C8.44131 8.91602 7.18613 8.9134 6.20874 9.07806L6.33333 9.81764L6.45793 10.5572C7.28053 10.4186 8.38093 10.416 10.3333 10.416V9.66602ZM6.33333 9.81764L6.20874 9.07806C5.91556 9.12745 5.64081 9.19258 5.37479 9.27901L5.60655 9.99231L5.83832 10.7056C6.02509 10.6449 6.22719 10.5961 6.45793 10.5572L6.33333 9.81764ZM6.33333 9.66602H5.58333V9.81764H6.33333H7.08333V9.66602H6.33333ZM15.6667 9.66602V10.416C17.6191 10.416 18.7195 10.4186 19.5421 10.5572L19.6667 9.81764L19.7913 9.07806C18.8139 8.9134 17.5587 8.91602 15.6667 8.91602V9.66602ZM19.6667 9.81764L19.5421 10.5572C19.7728 10.5961 19.9749 10.6449 20.1617 10.7056L20.3934 9.99231L20.6252 9.27901C20.3592 9.19258 20.0844 9.12745 19.7913 9.07806L19.6667 9.81764ZM19.6667 9.66602H18.9167V9.81764H19.6667H20.4167V9.66602H19.6667Z" fill="#286FF3"/>
</svg>
