<svg width="28" height="28" viewBox="0 0 28 28" fill="none" xmlns="http://www.w3.org/2000/svg">
<path d="M10.2656 21.7865L9.72524 22.3066L9.72524 22.3066L10.2656 21.7865ZM10.2564 21.7769L9.71891 22.3L10.2564 21.7769ZM9.42676 21.4239L9.4309 20.6739L9.42676 21.4239ZM18.5732 21.4239L18.5691 20.6739L18.5732 21.4239ZM17.7344 21.7864L17.194 21.2663L17.7344 21.7864ZM17.7436 21.7769L18.2811 22.3L17.7436 21.7769ZM17.3623 22.1731L17.9026 22.6932L17.3623 22.1731ZM10.6377 22.1731L11.1781 21.653H11.1781L10.6377 22.1731ZM14 24.6349V25.3849V24.6349ZM3.50034 15.6535L2.75038 15.6616L3.50034 15.6535ZM9.27038 21.4236L9.26229 22.1735L9.27038 21.4236ZM24.4997 15.6535L25.2496 15.6616L24.4997 15.6535ZM18.7296 21.4236L18.7377 22.1735L18.7296 21.4236ZM21.4623 3.04655L21.1028 3.70481L21.4623 3.04655ZM23.7865 5.37072L23.1282 5.73016L23.7865 5.37072ZM6.53771 3.04655L6.89715 3.70481L6.53771 3.04655ZM4.21354 5.37072L4.8718 5.73016L4.21354 5.37072ZM6.14802 20.4782L5.73798 21.1062L6.14802 20.4782ZM21.852 20.4782L22.262 21.1062L21.852 20.4782ZM17.9167 9.33301C17.9167 11.4961 16.1631 13.2497 14 13.2497V14.7497C16.9915 14.7497 19.4167 12.3245 19.4167 9.33301H17.9167ZM14 13.2497C11.8369 13.2497 10.0833 11.4961 10.0833 9.33301H8.58333C8.58333 12.3245 11.0085 14.7497 14 14.7497V13.2497ZM10.0833 9.33301C10.0833 7.16989 11.8369 5.41634 14 5.41634V3.91634C11.0085 3.91634 8.58333 6.34146 8.58333 9.33301H10.0833ZM14 5.41634C16.1631 5.41634 17.9167 7.16989 17.9167 9.33301H19.4167C19.4167 6.34146 16.9915 3.91634 14 3.91634V5.41634ZM13.0455 3.08301H14.9545V1.58301H13.0455V3.08301ZM23.75 11.8785V15.5104H25.25V11.8785H23.75ZM4.25 15.5104V11.8785H2.75V15.5104H4.25ZM17.194 21.2663L16.8219 21.653L17.9026 22.6932L18.2748 22.3066L17.194 21.2663ZM11.1781 21.653L10.806 21.2663L9.72524 22.3066L10.0974 22.6932L11.1781 21.653ZM10.806 21.2663C10.802 21.2622 10.7979 21.258 10.7939 21.2538L9.71891 22.3C9.71935 22.3004 9.71992 22.301 9.72524 22.3066L10.806 21.2663ZM9.41349 22.1739C9.42101 22.1739 9.42194 22.1739 9.42261 22.1739L9.4309 20.6739C9.42512 20.6739 9.41935 20.6739 9.41349 20.6739V22.1739ZM10.7939 21.2538C10.4356 20.8857 9.94458 20.6768 9.4309 20.6739L9.42261 22.1739C9.53428 22.1745 9.64103 22.22 9.71891 22.3L10.7939 21.2538ZM18.5865 20.6739C18.5806 20.6739 18.5749 20.6739 18.5691 20.6739L18.5774 22.1739C18.5781 22.1739 18.579 22.1739 18.5865 22.1739V20.6739ZM18.2748 22.3066C18.2798 22.3013 18.2806 22.3005 18.2811 22.3L17.2061 21.2538C17.2021 21.2579 17.1983 21.262 17.194 21.2663L18.2748 22.3066ZM18.5691 20.6739C18.0554 20.6768 17.5644 20.8857 17.2061 21.2538L18.2811 22.3C18.359 22.22 18.4657 22.1745 18.5774 22.1739L18.5691 20.6739ZM16.8219 21.653C16.0171 22.4892 15.4654 23.0599 14.9959 23.4311C14.5434 23.7888 14.2593 23.8849 14 23.8849V25.3849C14.7334 25.3849 15.3406 25.0707 15.9261 24.6078C16.4946 24.1584 17.1278 23.4982 17.9026 22.6932L16.8219 21.653ZM10.0974 22.6932C10.8722 23.4982 11.5054 24.1584 12.0739 24.6078C12.6594 25.0707 13.2666 25.3849 14 25.3849V23.8849C13.7407 23.8849 13.4566 23.7888 13.0041 23.4311C12.5346 23.0599 11.9829 22.4892 11.1781 21.653L10.0974 22.6932ZM2.75 15.5104C2.75 15.5829 2.74999 15.6251 2.75038 15.6616L4.2503 15.6454C4.25001 15.619 4.25 15.5868 4.25 15.5104H2.75ZM9.41349 20.6739C9.33708 20.6739 9.30488 20.6739 9.27847 20.6736L9.26229 22.1735C9.29883 22.1739 9.34105 22.1739 9.41349 22.1739V20.6739ZM23.75 15.5104C23.75 15.5868 23.75 15.619 23.7497 15.6454L25.2496 15.6616C25.25 15.6251 25.25 15.5829 25.25 15.5104H23.75ZM18.5865 22.1739C18.6589 22.1739 18.7012 22.1739 18.7377 22.1735L18.7215 20.6736C18.6951 20.6739 18.6629 20.6739 18.5865 20.6739V22.1739ZM14.9545 3.08301C16.7014 3.08301 17.9636 3.08366 18.9539 3.16941C19.9347 3.25432 20.5783 3.4184 21.1028 3.70481L21.8217 2.38829C21.0395 1.96116 20.1629 1.76847 19.0833 1.675C18.0133 1.58235 16.6751 1.58301 14.9545 1.58301V3.08301ZM25.25 11.8785C25.25 10.158 25.2507 8.81971 25.158 7.74968C25.0645 6.67007 24.8718 5.79351 24.4447 5.01128L23.1282 5.73016C23.4146 6.25468 23.5787 6.89833 23.6636 7.87907C23.7493 8.86939 23.75 10.1316 23.75 11.8785H25.25ZM21.1028 3.70481C21.9581 4.17183 22.6612 4.87486 23.1282 5.73016L24.4447 5.01128C23.8399 3.90361 22.9294 2.99313 21.8217 2.38829L21.1028 3.70481ZM13.0455 1.58301C11.3249 1.58301 9.98671 1.58235 8.91667 1.675C7.83706 1.76847 6.9605 1.96116 6.17827 2.38829L6.89715 3.70481C7.42167 3.41839 8.06532 3.25432 9.04606 3.16941C10.0364 3.08366 11.2986 3.08301 13.0455 3.08301V1.58301ZM4.25 11.8785C4.25 10.1316 4.25066 8.86939 4.3364 7.87907C4.42131 6.89833 4.58539 6.25468 4.8718 5.73016L3.55528 5.01128C3.12815 5.79351 2.93546 6.67007 2.84199 7.74968C2.74934 8.81971 2.75 10.1579 2.75 11.8785H4.25ZM6.17827 2.38829C5.0706 2.99313 4.16012 3.90361 3.55528 5.01128L4.8718 5.73016C5.33883 4.87486 6.04185 4.17183 6.89715 3.70481L6.17827 2.38829ZM10.5 18.2497H17.5V16.7497H10.5V18.2497ZM10.5 16.7497C8.19827 16.7497 6.23364 18.185 5.44885 20.2068L6.84719 20.7496C7.41551 19.2855 8.83771 18.2497 10.5 18.2497V16.7497ZM2.75038 15.6616C2.775 17.9429 3.95899 19.9446 5.73798 21.1062L6.55806 19.8502C5.18126 18.9512 4.26929 17.4057 4.2503 15.6454L2.75038 15.6616ZM5.73798 21.1062C6.75335 21.7692 7.96358 22.1595 9.26229 22.1735L9.27847 20.6736C8.27384 20.6628 7.34126 20.3616 6.55806 19.8502L5.73798 21.1062ZM17.5 18.2497C19.1623 18.2497 20.5845 19.2855 21.1528 20.7496L22.5512 20.2068C21.7664 18.185 19.8017 16.7497 17.5 16.7497V18.2497ZM23.7497 15.6454C23.7307 17.4057 22.8187 18.9512 21.4419 19.8502L22.262 21.1062C24.041 19.9446 25.225 17.9429 25.2496 15.6616L23.7497 15.6454ZM21.4419 19.8502C20.6587 20.3616 19.7262 20.6628 18.7215 20.6736L18.7377 22.1735C20.0364 22.1595 21.2467 21.7692 22.262 21.1062L21.4419 19.8502Z" fill="#286FF3"/>
</svg>
