<svg width="26" height="26" viewBox="0 0 26 26" fill="none" xmlns="http://www.w3.org/2000/svg">
<path d="M4.12007 23.8067L4.51195 23.1673L4.12007 23.8067ZM2.19425 21.8809L2.83373 21.489L2.19425 21.8809ZM23.8084 21.8809L23.1689 21.489L23.8084 21.8809ZM21.8826 23.8067L21.4907 23.1673L21.8826 23.8067ZM21.8826 5.69261L21.4907 6.33209L21.8826 5.69261ZM23.8084 7.61843L23.1689 8.01031L23.8084 7.61843ZM4.12007 5.69261L4.51195 6.33209L4.12007 5.69261ZM2.19425 7.61843L2.83373 8.01031L2.19425 7.61843ZM20.5576 1.97053L21.0988 1.45136V1.45136L20.5576 1.97053ZM3.48624 2.37226L3.93908 2.97012L3.48624 2.37226ZM2.3315 3.57612L2.94682 4.00494L2.3315 3.57612ZM21.168 4.98505H21.918L21.918 4.98135L21.168 4.98505ZM20.4256 14.7573C20.8398 14.7573 21.1756 14.4215 21.1756 14.0073C21.1756 13.5931 20.8398 13.2573 20.4256 13.2573V14.7573ZM17.2437 13.2573C16.8295 13.2573 16.4937 13.5931 16.4937 14.0073C16.4937 14.4215 16.8295 14.7573 17.2437 14.7573V13.2573ZM11.2513 5.58301H14.7513V4.08301H11.2513V5.58301ZM14.7513 23.9163H11.2513V25.4163H14.7513V23.9163ZM11.2513 23.9163C9.32729 23.9163 7.93694 23.9155 6.85058 23.8123C5.77539 23.71 5.07567 23.5127 4.51195 23.1673L3.7282 24.4462C4.56722 24.9604 5.52361 25.1929 6.7086 25.3055C7.88243 25.4171 9.35634 25.4163 11.2513 25.4163V23.9163ZM0.584648 14.7497C0.584648 16.6447 0.583857 18.1186 0.695465 19.2924C0.808135 20.4774 1.04062 21.4338 1.55477 22.2728L2.83373 21.489C2.48828 20.9253 2.29096 20.2256 2.18873 19.1504C2.08544 18.064 2.08465 16.6737 2.08465 14.7497H0.584648ZM4.51195 23.1673C3.82796 22.7481 3.25288 22.173 2.83373 21.489L1.55477 22.2728C2.0976 23.1586 2.84238 23.9034 3.7282 24.4462L4.51195 23.1673ZM14.7513 25.4163C16.6463 25.4163 18.1202 25.4171 19.294 25.3055C20.479 25.1929 21.4354 24.9604 22.2744 24.4462L21.4907 23.1673C20.927 23.5127 20.2272 23.71 19.152 23.8123C18.0657 23.9155 16.6753 23.9163 14.7513 23.9163V25.4163ZM23.1689 21.489C22.7498 22.173 22.1747 22.7481 21.4907 23.1673L22.2744 24.4462C23.1603 23.9034 23.905 23.1586 24.4479 22.2728L23.1689 21.489ZM21.4907 6.33209C22.1747 6.75124 22.7498 7.32632 23.1689 8.01031L24.4479 7.22656C23.905 6.34074 23.1603 5.59596 22.2744 5.05313L21.4907 6.33209ZM11.2513 4.08301C9.35634 4.08301 7.88243 4.08222 6.7086 4.19382C5.52361 4.30649 4.56722 4.53898 3.7282 5.05313L4.51195 6.33209C5.07567 5.98664 5.77539 5.78932 6.85058 5.68709C7.93694 5.5838 9.32729 5.58301 11.2513 5.58301V4.08301ZM2.08465 14.7497C2.08465 12.8257 2.08544 11.4353 2.18873 10.3489C2.29096 9.27375 2.48828 8.57403 2.83373 8.01031L1.55477 7.22656C1.04062 8.06558 0.808135 9.02197 0.695465 10.207C0.583857 11.3808 0.584648 12.8547 0.584648 14.7497H2.08465ZM3.7282 5.05313C2.84238 5.59596 2.0976 6.34073 1.55477 7.22656L2.83373 8.01031C3.25288 7.32632 3.82796 6.75124 4.51195 6.33209L3.7282 5.05313ZM10.7299 2.08301H16.9934V0.583008H10.7299V2.08301ZM16.9934 2.08301C17.9997 2.08301 18.6758 2.08474 19.1802 2.15544C19.6597 2.22265 19.8717 2.33893 20.0163 2.48971L21.0988 1.45136C20.6319 0.964607 20.046 0.762127 19.3884 0.669959C18.7558 0.581279 17.9555 0.583008 16.9934 0.583008V2.08301ZM10.7299 0.583008C8.7901 0.583008 7.27246 0.58189 6.0705 0.717654C4.85259 0.85522 3.86971 1.14094 3.03339 1.77441L3.93908 2.97012C4.47481 2.56433 5.15656 2.33042 6.23886 2.20818C7.33712 2.08413 8.75529 2.08301 10.7299 2.08301V0.583008ZM2.08465 11.1279C2.08465 9.07141 2.0856 7.58685 2.20524 6.4356C2.3236 5.29663 2.55135 4.57241 2.94682 4.00494L1.71618 3.14731C1.1148 4.01024 0.84412 5.02146 0.713272 6.28055C0.5837 7.52736 0.584648 9.10349 0.584648 11.1279H2.08465ZM3.03339 1.77441C2.52677 2.15814 2.08249 2.62167 1.71618 3.14731L2.94682 4.00494C3.22439 3.60664 3.55947 3.25765 3.93908 2.97012L3.03339 1.77441ZM21.918 4.98135C21.9141 4.19085 21.897 3.51683 21.8002 2.96152C21.7001 2.38713 21.5046 1.87436 21.0988 1.45136L20.0163 2.48971C20.148 2.62706 20.2538 2.82473 20.3225 3.21911C20.3946 3.63257 20.414 4.18562 20.418 4.98876L21.918 4.98135ZM0.584648 11.1279C0.584648 12.2706 0.561137 13.3066 0.584902 14.1866L2.08436 14.1461C2.06125 13.2906 2.08465 12.3233 2.08465 11.1279H0.584648ZM24.0846 16.4391H17.2437V17.9391H24.0846V16.4391ZM13.3119 14.0073C13.3119 16.1788 15.0723 17.9391 17.2437 17.9391V16.4391C15.9007 16.4391 14.8119 15.3503 14.8119 14.0073H13.3119ZM14.8119 14.0073C14.8119 12.6642 15.9007 11.5754 17.2437 11.5754V10.0754C15.0723 10.0754 13.3119 11.8358 13.3119 14.0073H14.8119ZM20.4256 13.2573H17.2437V14.7573H20.4256V13.2573ZM14.7513 5.58301C16.3653 5.58301 17.6067 5.58333 18.6131 5.64543C19.6187 5.70748 20.3329 5.82891 20.9017 6.04493L21.4343 4.64265C20.6581 4.34789 19.7693 4.21392 18.7055 4.14828C17.6425 4.08269 16.348 4.08301 14.7513 4.08301V5.58301ZM20.9017 6.04493C21.1152 6.12599 21.3092 6.22085 21.4907 6.33209L22.2744 5.05313C22.0091 4.89051 21.7305 4.75514 21.4343 4.64265L20.9017 6.04493ZM20.418 4.98505V5.34379H21.918V4.98505H20.418ZM17.2437 11.5754H24.6031V10.0754H17.2437V11.5754ZM25.418 14.7497C25.418 13.1447 25.4183 11.845 25.3517 10.7787L23.8546 10.8722C23.9177 11.8812 23.918 13.1272 23.918 14.7497H25.418ZM25.3517 10.7787C25.2606 9.32126 25.0408 8.19413 24.4479 7.22656L23.1689 8.01031C23.5687 8.66274 23.7684 9.49357 23.8546 10.8722L25.3517 10.7787ZM23.918 14.7497C23.918 15.6681 23.918 16.4681 23.9062 17.1766L25.406 17.2015C25.418 16.478 25.418 15.6646 25.418 14.7497H23.918ZM23.9062 17.1766C23.8683 19.459 23.7019 20.6192 23.1689 21.489L24.4479 22.2728C25.2214 21.0105 25.3686 19.4533 25.406 17.2015L23.9062 17.1766ZM24.0846 17.9391H24.6561V16.4391H24.0846V17.9391Z" fill="#286FF3"/>
</svg>
