<svg width="28" height="28" viewBox="0 0 28 28" fill="none" xmlns="http://www.w3.org/2000/svg">
<path fill-rule="evenodd" clip-rule="evenodd" d="M12.0287 0.851247C14.8477 0.654688 17.8552 -0.745955 20.3567 0.531924C22.8582 1.8098 23.4851 4.95087 24.8058 7.37828C26.0784 9.71728 28.2274 11.9097 27.9804 14.5444C27.7347 17.1669 24.8897 18.7169 23.5297 20.9948C22.1731 23.2669 22.6297 27.3814 19.9862 27.9336C16.9273 28.5726 14.9766 24.4158 12.0287 23.3973C10.3524 22.8181 8.51575 23.761 6.7824 23.3716C4.61724 22.8853 2.00456 22.6529 0.758248 20.8655C-0.479508 19.0904 0.0374386 16.6104 0.627238 14.5444C1.14547 12.7291 3.34389 11.7815 3.8692 9.96813C4.65737 7.24735 2.45438 3.78007 4.3634 1.64706C6.0786 -0.269405 9.4212 1.03305 12.0287 0.851247Z" fill="#D4E2FD"/>
</svg>
