<svg width="36" height="36" viewBox="0 0 36 36" fill="none" xmlns="http://www.w3.org/2000/svg">
<path d="M12.8234 6.76103C14.4528 1.74632 21.5473 1.74632 23.1767 6.76103C23.9053 9.00368 25.9952 10.5221 28.3533 10.5221C33.6261 10.5221 35.8184 17.2693 31.5526 20.3686C29.6449 21.7546 28.8466 24.2114 29.5753 26.454C31.2047 31.4688 25.4651 35.6388 21.1994 32.5395C19.2917 31.1535 16.7084 31.1535 14.8007 32.5395C10.5349 35.6388 4.7954 31.4688 6.42478 26.454C7.15346 24.2114 6.35519 21.7546 4.44748 20.3686C0.181718 17.2693 2.37403 10.5221 7.64681 10.5221C10.0049 10.5221 12.0947 9.00368 12.8234 6.76103Z" stroke="#B0B0B0" stroke-width="1.5"/>
</svg>
