<svg width="12" height="12" viewBox="0 0 12 12" fill="none" xmlns="http://www.w3.org/2000/svg">
<path fill-rule="evenodd" clip-rule="evenodd" d="M3.9179 1.6378C4.57328 -0.379265 7.42688 -0.379265 8.08227 1.6378C8.27496 2.23084 8.8276 2.63235 9.45116 2.63235C11.572 2.63235 12.4538 5.34629 10.738 6.59291C10.2336 6.95942 10.0225 7.60909 10.2151 8.20213C10.8705 10.2192 8.56192 11.8965 6.8461 10.6499C6.34163 10.2834 5.65853 10.2834 5.15406 10.6499C3.43824 11.8965 1.12963 10.2192 1.78501 8.20213C1.9777 7.60909 1.76661 6.95942 1.26214 6.59291C-0.453672 5.34629 0.428141 2.63235 2.549 2.63235C3.17256 2.63235 3.72521 2.23084 3.9179 1.6378ZM7.35524 3.3227C7.28879 3.12655 7.07591 3.02139 6.87975 3.08784C6.68359 3.15429 6.57844 3.36717 6.64489 3.56333C6.86043 4.19966 7.47177 4.61683 8.1463 4.61683C8.3534 4.61683 8.5213 4.44894 8.5213 4.24183C8.5213 4.03472 8.3534 3.86683 8.1463 3.86683C7.77655 3.86683 7.46238 3.63902 7.35524 3.3227Z" fill="#F8BC4C"/>
</svg>
