<svg width="41" height="40" viewBox="0 0 41 40" fill="none" xmlns="http://www.w3.org/2000/svg">
<path d="M4.84642 9.41374C3.83301 11.5596 3.83301 14.6234 3.83301 20C3.83301 26.2496 3.83301 29.3743 5.42453 31.5649C5.93853 32.2723 6.56067 32.8945 7.26813 33.4085C9.45868 35 12.5835 35 18.833 35H22.1663C28.4159 35 31.5407 35 33.7312 33.4085C34.4387 32.8945 35.0608 32.2723 35.5748 31.5649C37.1663 29.3743 37.1663 26.2496 37.1663 20C37.1663 14.5854 37.1663 11.5164 36.1313 9.36838M4.84642 9.41374C5.01096 9.06532 5.20222 8.74111 5.42453 8.43512C5.93853 7.72767 6.56067 7.10552 7.26813 6.59152C9.45868 5 12.5835 5 18.833 5H22.1663C28.4159 5 31.5407 5 33.7312 6.59152C34.4387 7.10552 35.0608 7.72767 35.5748 8.43512C35.7875 8.72779 35.9717 9.03714 36.1313 9.36838M4.84642 9.41374L5.49967 10L8.71456 13.2149C14.2701 18.7704 17.0479 21.5482 20.4997 21.5482C23.9515 21.5482 26.7292 18.7704 32.2848 13.2149L35.4997 10L36.1313 9.36838" stroke="#286FF3" stroke-width="1.5"/>
</svg>
