<svg width="393" height="265" viewBox="0 0 393 265" fill="none" xmlns="http://www.w3.org/2000/svg">
<path d="M205.651 157.943C205.612 157.943 205.573 157.923 205.533 157.884L163.889 112.131C163.83 112.053 163.81 111.934 163.83 111.836C163.849 111.738 163.928 111.659 164.007 111.659H208.247C208.306 111.659 208.345 111.698 208.384 111.738C208.424 111.797 208.443 111.856 208.443 111.934L205.848 157.687C205.848 157.785 205.789 157.864 205.73 157.903C205.71 157.943 205.691 157.943 205.651 157.943ZM164.557 112.171L205.494 157.155L208.05 112.171H164.557Z" fill="white"/>
<path d="M164.027 112.171C163.987 112.171 163.948 112.151 163.928 112.131L74.9759 -3.37154C74.9169 -3.4306 74.8775 -3.52905 74.8972 -3.62748C74.8972 -3.72591 74.9562 -3.80469 75.0348 -3.84407L200.422 -18.5698C200.5 -18.6092 200.579 -18.5698 200.618 -18.4911C200.677 -18.4123 200.697 -18.3139 200.657 -18.2155L164.223 112.013C164.204 112.092 164.164 112.151 164.105 112.171C164.066 112.171 164.046 112.171 164.027 112.171ZM75.5067 -3.50936L163.928 111.521L200.146 -17.9005L75.5067 -3.50936Z" fill="white"/>
<path d="M413.856 31.2182C413.817 31.2182 413.797 31.1986 413.777 31.1986L281.057 -56.8018C280.978 -56.8609 280.939 -56.979 280.958 -57.0971C280.978 -57.2152 281.057 -57.294 281.135 -57.294L450.29 -60.8179C450.369 -60.8179 450.428 -60.7786 450.448 -60.6998C450.487 -60.6211 450.487 -60.5226 450.448 -60.4439L414.013 31.0805C413.994 31.1789 413.915 31.2182 413.856 31.2182ZM281.941 -56.7821L413.777 30.6276L449.976 -60.2667L281.941 -56.7821Z" fill="white"/>
<path d="M295.469 264.961H296.236L227.339 210.861L429.153 238.856L418.122 264.961H418.575L429.645 238.757C429.684 238.679 429.684 238.58 429.645 238.501C429.625 238.423 429.566 238.383 429.487 238.364L226.493 210.211C226.395 210.172 226.316 210.27 226.297 210.389C226.257 210.507 226.297 210.645 226.375 210.704L295.469 264.961Z" fill="white"/>
<path d="M-4.32241 264.961H-3.53592L-61.4218 221.453L-0.07535 231.828L6.03964 264.961H6.43288L0.258906 231.532C0.239244 231.434 0.180261 231.355 0.101611 231.335L-62.3656 220.783C-62.4639 220.744 -62.5426 220.842 -62.5622 220.96C-62.5819 221.079 -62.5622 221.216 -62.4836 221.275L-4.32241 264.961Z" fill="white"/>
<path d="M164.026 112.171C164.007 112.171 163.987 112.171 163.967 112.151L85.8882 73.4269C85.8292 73.4073 85.7899 73.3285 85.7703 73.2498L74.897 -3.54871C74.8773 -3.64715 74.897 -3.7653 74.9756 -3.82436C75.0346 -3.88342 75.1329 -3.88342 75.1919 -3.82436L164.125 111.659C164.203 111.698 164.243 111.777 164.243 111.895C164.223 112.053 164.144 112.171 164.026 112.171ZM86.1045 72.9938L162.571 110.911L75.3885 -2.99748L86.1045 72.9938Z" fill="white"/>
<path d="M0.0620063 231.847H0.0423472L-62.4249 221.295C-62.4839 221.295 -62.5429 221.236 -62.5625 221.177C-62.5822 221.118 -62.6019 221.02 -62.5822 220.96L-23.5525 69.6077C-23.5328 69.4896 -23.4345 69.4108 -23.3558 69.4305C-23.2772 69.4305 -23.1985 69.529 -23.1789 69.6471L0.238968 231.552C0.25863 231.631 0.238967 231.71 0.199642 231.769C0.160317 231.828 0.120993 231.847 0.0620063 231.847ZM-62.13 220.823L-0.17394 231.296L-23.4148 70.6708L-62.13 220.823Z" fill="white"/>
<path d="M0.0619678 231.847C0.0423055 231.847 0.0423046 231.847 0.0226423 231.847C-0.0560071 231.828 -0.11499 231.749 -0.134652 231.651L-23.5525 69.7259C-23.5525 69.6471 -23.5525 69.5684 -23.5132 69.5093C-23.4738 69.4502 -23.4149 69.4109 -23.3559 69.4109L85.947 72.9348C86.0257 72.9348 86.0847 72.9939 86.1043 73.0726C86.1437 73.1514 86.124 73.2695 86.0847 73.3483L0.199604 231.749C0.179941 231.808 0.120955 231.847 0.0619678 231.847ZM-23.1199 69.9424L0.179945 230.961L85.5735 73.4467L-23.1199 69.9424Z" fill="white"/>
<path d="M85.947 73.4663L-23.3755 69.9423C-23.4738 69.9423 -23.5525 69.8439 -23.5525 69.7061C-23.5525 69.588 -23.4935 69.4501 -23.4149 69.4305L74.9951 -3.84412C75.0934 -3.88349 75.2114 -3.80469 75.2311 -3.66688L86.1043 73.0528C86.124 73.0922 86.1437 73.1513 86.1437 73.1907C86.1437 73.3482 86.065 73.4663 85.947 73.4663ZM-21.9598 69.4699L85.6914 72.9347L74.9361 -3.27318L-21.9598 69.4699Z" fill="white"/>
<path d="M213.261 264.961L226.592 210.861L295.489 264.961H296.256L226.592 210.251C226.533 210.211 226.494 210.211 226.435 210.231C226.376 210.271 226.336 210.31 226.317 210.389L212.868 264.961H213.261V264.961Z" fill="white"/>
<path d="M162.394 264.961L226.14 211.078L212.868 264.961H213.28L226.69 210.566C226.71 210.467 226.69 210.349 226.631 210.271C226.572 210.212 226.474 210.192 226.415 210.251L161.687 264.961H162.394V264.961Z" fill="white"/>
<path d="M137.994 200.171C137.954 200.171 137.895 200.151 137.856 200.092C137.797 200.014 137.777 199.895 137.817 199.797L163.85 111.797C163.869 111.718 163.928 111.659 163.987 111.639C164.046 111.619 164.105 111.639 164.164 111.698L205.809 157.451C205.868 157.51 205.888 157.588 205.888 157.687C205.888 157.766 205.829 157.844 205.77 157.884L138.112 200.132C138.053 200.171 138.013 200.171 137.994 200.171ZM164.105 112.348L138.347 199.423L205.298 157.628L164.105 112.348Z" fill="white"/>
<path d="M226.474 210.743L137.974 200.191C137.895 200.171 137.816 200.092 137.797 199.974C137.777 199.856 137.816 199.738 137.895 199.699L205.553 157.47C205.651 157.411 205.75 157.47 205.809 157.588L226.612 210.33C226.651 210.369 226.67 210.448 226.67 210.507C226.67 210.625 226.572 210.704 226.474 210.743ZM138.721 199.738L226.14 210.172L205.573 158.021L138.721 199.738Z" fill="white"/>
<path d="M6.43266 264.961L0.298008 231.808L136.381 200.545L23.008 264.961H23.9911L138.072 200.151C138.17 200.092 138.21 199.974 138.19 199.837C138.17 199.718 138.072 199.64 137.974 199.659L0.0424027 231.336C-0.0165843 231.355 -0.0559117 231.395 -0.075574 231.454C-0.114899 231.513 -0.114903 231.591 -0.0952406 231.651L6.05907 264.961H6.43266V264.961Z" fill="white"/>
<path d="M0.0620399 231.847C0.00305291 231.847 -0.0756 231.808 -0.0952624 231.729C-0.134587 231.65 -0.134587 231.532 -0.0952624 231.434L85.7898 73.0529C85.8291 72.9741 85.8881 72.9348 85.9471 72.9545C86.0061 72.9545 86.0651 73.0136 86.1044 73.0923L138.151 199.817C138.17 199.895 138.19 199.974 138.151 200.053C138.131 200.132 138.072 200.191 138.013 200.191L0.0816989 231.867C0.0816989 231.847 0.0817022 231.847 0.0620399 231.847ZM85.9275 73.6829L0.514273 231.237L137.718 199.718L85.9275 73.6829Z" fill="white"/>
<path d="M23.9913 264.961L137.836 200.289L141.985 264.961H142.378L138.19 199.896C138.19 199.817 138.151 199.738 138.092 199.699C138.033 199.659 137.974 199.64 137.915 199.679L22.9885 264.961H23.9913Z" fill="white"/>
<path d="M137.993 200.171C137.915 200.171 137.856 200.112 137.816 200.033L85.7701 73.3285C85.7308 73.2301 85.7308 73.112 85.7897 73.0332C85.8487 72.9545 85.9274 72.9151 86.006 72.9545L164.085 111.679C164.124 111.698 164.164 111.757 164.203 111.816C164.223 111.875 164.223 111.954 164.203 112.013L138.17 200.014C138.151 200.112 138.072 200.171 137.993 200.171C137.993 200.171 138.013 200.171 137.993 200.171ZM86.36 73.6829L137.954 199.305L163.751 112.072L86.36 73.6829Z" fill="white"/>
<path d="M142.378 264.961L138.21 200.211L225.884 210.664L161.647 264.961H162.375L226.572 210.704C226.651 210.645 226.671 210.526 226.651 210.428C226.631 210.33 226.572 210.231 226.474 210.231L137.993 199.679C137.934 199.679 137.875 199.699 137.836 199.758C137.797 199.817 137.777 199.895 137.777 199.974L141.965 265H142.378V264.961Z" fill="white"/>
<path d="M288.941 91.0665C288.902 91.0665 288.843 91.0468 288.803 90.9877L200.323 -18.117C200.264 -18.176 200.244 -18.2745 200.264 -18.3532C200.284 -18.4517 200.323 -18.5107 200.382 -18.5501L281.056 -57.2742C281.115 -57.3136 281.174 -57.2939 281.233 -57.2545C281.292 -57.2151 281.312 -57.1364 281.312 -57.0576L289.118 90.6924C289.118 90.7318 289.138 90.7515 289.138 90.7908C289.138 90.9483 289.059 91.0665 288.941 91.0665ZM200.815 -18.2154L288.705 90.1608L280.958 -56.6836L200.815 -18.2154Z" fill="white"/>
<path d="M226.474 210.743C226.395 210.743 226.336 210.684 226.297 210.605L205.475 157.805C205.435 157.687 205.455 157.529 205.553 157.47L288.823 90.594C288.902 90.5349 289 90.5546 289.059 90.6334C289.118 90.7318 289.138 90.8499 289.079 90.968L226.612 210.645C226.592 210.684 226.533 210.743 226.474 210.743ZM205.907 157.766L226.494 209.975L288.253 91.6374L205.907 157.766Z" fill="white"/>
<path d="M429.468 238.895H429.448L226.454 210.743C226.395 210.743 226.317 210.664 226.297 210.585C226.277 210.507 226.277 210.408 226.317 210.33L288.784 90.653C288.803 90.5939 288.862 90.5546 288.902 90.5546C288.961 90.5546 289 90.5546 289.039 90.6136L429.566 238.442C429.645 238.521 429.664 238.639 429.625 238.738C429.625 238.836 429.546 238.895 429.468 238.895ZM226.828 210.251L428.819 238.265L288.98 91.1451L226.828 210.251Z" fill="white"/>
<path d="M288.941 91.0665C288.902 91.0665 288.862 91.0467 288.843 91.0271C288.803 90.9877 288.764 90.909 288.764 90.8302L280.958 -56.9986C280.958 -57.097 280.978 -57.1758 281.037 -57.2349C281.096 -57.2939 281.174 -57.2939 281.233 -57.2545L413.954 30.7458C414.033 30.7852 414.072 30.8836 414.072 31.0018C414.072 31.1002 414.013 31.1986 413.934 31.238L289 91.0468C288.98 91.0468 288.961 91.0665 288.941 91.0665ZM281.351 -56.6049L289.118 90.4365L413.364 30.923L281.351 -56.6049Z" fill="white"/>
<path d="M429.468 238.895C429.429 238.895 429.389 238.876 429.35 238.836L288.823 91.0074C288.764 90.9483 288.745 90.8499 288.745 90.7515C288.764 90.653 288.804 90.5743 288.863 90.5546L413.777 30.7261C413.836 30.7064 413.895 30.7065 413.935 30.7458C413.974 30.7852 414.013 30.864 414.013 30.9427L429.625 238.541C429.625 238.58 429.645 238.6 429.645 238.639C429.665 238.777 429.586 238.895 429.468 238.895ZM289.335 90.8893L429.232 238.049L413.699 31.3168L289.335 90.8893Z" fill="white"/>
<path d="M164.027 112.171C163.968 112.171 163.909 112.131 163.869 112.072C163.83 111.994 163.81 111.915 163.85 111.816L200.284 -18.4123C200.323 -18.5304 200.382 -18.6091 200.481 -18.5698C200.559 -18.5698 200.638 -18.4714 200.657 -18.3532L216.269 104.847C216.269 104.926 216.269 104.985 216.23 105.044C216.191 105.103 216.151 105.143 216.092 105.143L164.046 112.19C164.027 112.171 164.027 112.171 164.027 112.171ZM200.382 -17.3295L164.302 111.62L215.837 104.65L200.382 -17.3295Z" fill="white"/>
<path d="M208.266 112.171H164.026C163.928 112.171 163.849 112.072 163.83 111.934C163.83 111.797 163.908 111.679 164.007 111.659L216.053 104.611C216.151 104.611 216.23 104.67 216.249 104.788C216.289 104.906 216.249 105.024 216.171 105.083L208.365 112.112C208.325 112.171 208.306 112.171 208.266 112.171ZM167.88 111.659H208.207L215.325 105.241L167.88 111.659Z" fill="white"/>
<path d="M216.073 105.143C215.974 105.143 215.896 105.064 215.876 104.926L200.264 -18.2745C200.244 -18.3729 200.284 -18.4911 200.362 -18.5501C200.441 -18.5895 200.52 -18.5895 200.579 -18.5107L289.059 90.5939C289.118 90.6727 289.138 90.7711 289.118 90.8696C289.098 90.968 289.039 91.0271 288.961 91.0467L216.092 105.123C216.092 105.143 216.073 105.143 216.073 105.143ZM200.736 -17.6052L216.21 104.591L288.489 90.6333L200.736 -17.6052Z" fill="white"/>
<path d="M205.652 157.943C205.632 157.943 205.632 157.943 205.612 157.943C205.514 157.923 205.455 157.805 205.455 157.667L208.05 111.915C208.05 111.836 208.09 111.757 208.129 111.718L215.935 104.69C215.994 104.631 216.092 104.631 216.151 104.69C216.21 104.749 216.25 104.867 216.23 104.965L205.809 157.766C205.829 157.864 205.75 157.943 205.652 157.943ZM208.444 112.072L206.006 154.891L215.738 105.477L208.444 112.072Z" fill="white"/>
<path d="M205.651 157.943C205.612 157.943 205.573 157.923 205.533 157.884C205.474 157.825 205.435 157.707 205.455 157.608L215.856 104.808C215.876 104.709 215.935 104.631 216.013 104.611L288.882 90.5349C288.961 90.5152 289.059 90.5939 289.098 90.7121C289.118 90.8302 289.098 90.9483 289.02 91.027L205.75 157.903C205.73 157.923 205.691 157.943 205.651 157.943ZM216.23 105.123L205.966 157.136L288.017 91.2436L216.23 105.123Z" fill="white"/>
</svg>
